<?xml version="1.0" encoding="UTF-8"?>
<svg width="20px" height="20px" viewBox="0 0 20 20" version="1.1" xmlns="http://www.w3.org/2000/svg" xmlns:xlink="http://www.w3.org/1999/xlink">
    <title>icons8-rocket-50</title>
    <g id="Page-1" stroke="none" stroke-width="1" fill="none" fill-rule="evenodd">
        <g id="icons8-rocket-50" fill="#111741" fill-rule="nonzero">
            <g id="Group" transform="translate(9.979592, 10.000000) scale(-1, 1) rotate(-180.000000) translate(-9.979592, -10.000000) ">
                <path d="M16.6122449,19.5510204 C13.0612245,18.6938776 11.1020408,17.1020408 6,10.7346939 C4,8.28571429 3.67346939,7.67346939 4.04081633,7.02040816 C4.48979592,6.16326531 7.18367347,3.67346939 7.67346939,3.67346939 C8.08163265,3.67346939 13.9591837,8.53061224 16.2040816,10.6938776 C18.122449,12.5714286 19.3877551,15.1428571 19.7959184,18.0816327 C20.0816327,19.9183673 20.0408163,20 19.1428571,19.9591837 C18.6122449,19.9183673 17.4693878,19.755102 16.6122449,19.5510204 Z M15.1020408,14.8979592 C16.1632653,13.5918367 14.5714286,11.5918367 13.1836735,12.4897959 C12.244898,13.0612245 12.0408163,14.1632653 12.6530612,14.8979592 C13.3061224,15.6734694 14.4489796,15.6734694 15.1020408,14.8979592 Z" id="Shape"></path>
                <path d="M2.24489796,10.7755102 C1.06122449,9.18367347 1.06122449,9.18367347 2.28571429,8.81632653 C2.93877551,8.6122449 3.42857143,8.93877551 4.40816327,10.1632653 C5.14285714,11.0612245 5.71428571,11.877551 5.71428571,12 C5.71428571,12.122449 5.18367347,12.244898 4.53061224,12.244898 C3.67346939,12.244898 3.06122449,11.877551 2.24489796,10.7755102 Z" id="Path"></path>
                <path d="M3.02040816,6.08163265 C2.53061224,5.26530612 5.46938776,2.40816327 6.08163265,3.10204082 C6.20408163,3.30612245 5.67346939,4.12244898 4.81632653,4.93877551 C3.95918367,5.79591837 3.14285714,6.28571429 3.02040816,6.08163265 Z" id="Path"></path>
                <path d="M10.122449,4.36734694 C8.93877551,3.34693878 8.65306122,2.85714286 8.81632653,2.16326531 C9.14285714,0.979591837 9.14285714,0.979591837 10.8571429,2.28571429 C11.877551,3.06122449 12.244898,3.67346939 12.244898,4.53061224 C12.244898,6 12,6 10.122449,4.36734694 Z" id="Path"></path>
                <path d="M0.857142857,3.42857143 C0.367346939,2.81632653 0,1.79591837 0,1.18367347 C0,0.163265306 0.163265306,0 1.18367347,0 C2.53061224,0 4.48979592,1.3877551 4.48979592,2.36734694 C4.48979592,2.89795918 4.24489796,2.7755102 3.46938776,1.91836735 C2.20408163,0.612244898 0.816326531,0.448979592 0.816326531,1.63265306 C0.816326531,2.04081633 1.30612245,2.89795918 1.91836735,3.46938776 C2.7755102,4.24489796 2.89795918,4.48979592 2.36734694,4.48979592 C2,4.48979592 1.30612245,4 0.857142857,3.42857143 Z" id="Path"></path>
            </g>
        </g>
    </g>
</svg>